<svg width="24" height="24" fill="none" xmlns="http://www.w3.org/2000/svg"><mask id="a" style="mask-type:alpha" maskUnits="userSpaceOnUse" x="0" y="0" width="24" height="24"><path transform="matrix(-1 0 0 1 24 0)" fill="#D9D9D9" d="M0 0h24v24H0z"/></mask><g mask="url(#a)"><path d="M14.815 12l-7.532 7.533a.934.934 0 00-.29.702.98.98 0 00.305.701.96.96 0 00.702.299c.27 0 .503-.1.702-.299l7.671-7.655c.18-.181.315-.384.402-.608.087-.224.13-.449.13-.673 0-.224-.043-.449-.13-.673a1.753 1.753 0 00-.402-.608L8.702 3.048a.942.942 0 00-.71-.29.997.997 0 00-.71.305.96.96 0 00-.297.702c0 .27.099.504.298.702L14.815 12z" fill="#121212"/></g></svg>