<svg width="24" height="24" fill="none" xmlns="http://www.w3.org/2000/svg"><mask id="a" style="mask-type:alpha" maskUnits="userSpaceOnUse" x="0" y="0" width="24" height="24"><path fill="#D9D9D9" d="M0 0h24v24H0z"/></mask><g mask="url(#a)"><path d="M7.373 12.75l5.17 5.17a.705.705 0 01.22.521.743.743 0 01-.236.532.783.783 0 01-.527.225.699.699 0 01-.527-.225l-6.34-6.34A.829.829 0 014.877 12a.829.829 0 01.256-.633l6.34-6.34a.715.715 0 01.514-.213.748.748 0 01.54.213.735.735 0 01.233.535c0 .2-.078.379-.233.534L7.373 11.25H18.75a.73.73 0 01.535.215.726.726 0 01.215.535.726.726 0 01-.215.535.726.726 0 01-.535.215H7.373z" fill="#fff"/></g></svg>