<svg width="10" height="10" fill="none" xmlns="http://www.w3.org/2000/svg"><path d="M5 5.727L1.408 9.32a.457.457 0 01-.354.15A.53.53 0 01.7 9.3a.5.5 0 01-.16-.363.5.5 0 01.16-.364L4.273 5 .681 1.433a.467.467 0 01-.15-.364A.538.538 0 01.7.706a.5.5 0 01.364-.16.5.5 0 01.363.16L5 4.298 8.567.706a.49.49 0 01.354-.16.49.49 0 01.354.16c.11.11.165.232.165.366a.49.49 0 01-.165.36L5.702 5l3.592 3.593a.49.49 0 01.16.353.49.49 0 01-.16.354.508.508 0 01-.366.166.49.49 0 01-.36-.166L5 5.727z" fill="#1C1B1F"/></svg>