<svg width="24" height="24" fill="none" xmlns="http://www.w3.org/2000/svg"><mask id="a" style="mask-type:alpha" maskUnits="userSpaceOnUse" x="0" y="0" width="24" height="24"><path fill="#D9D9D9" d="M0 0h24v24H0z"/></mask><g mask="url(#a)"><path d="M12 21.5c-1.613 0-2.933-.231-3.96-.693C7.013 20.345 6.5 19.742 6.5 19c0-.391.168-.749.504-1.073.336-.324.8-.605 1.394-.842l.287.957c-.348.148-.619.303-.814.467-.195.163-.315.327-.36.491.115.446.599.808 1.452 1.085.854.276 1.867.415 3.037.415 1.158 0 2.168-.139 3.03-.415.862-.277 1.35-.639 1.464-1.085-.045-.164-.165-.325-.36-.482a3.956 3.956 0 00-.813-.476l.306-.957c.594.237 1.054.518 1.382.842.327.324.491.682.491 1.073 0 .742-.514 1.345-1.54 1.807-1.027.462-2.347.693-3.96.693zm0-5.137c.3-.588.655-1.188 1.065-1.8.41-.613.832-1.198 1.264-1.755.642-.839 1.156-1.601 1.542-2.288.386-.686.579-1.543.579-2.57 0-1.228-.435-2.277-1.304-3.146C14.276 3.934 13.228 3.5 12 3.5s-2.277.435-3.146 1.304c-.87.87-1.304 1.918-1.304 3.146 0 1.027.196 1.884.588 2.57.393.687.904 1.45 1.533 2.288.432.557.853 1.142 1.264 1.755.41.612.765 1.212 1.065 1.8zm0 1.522a.603.603 0 01-.404-.163 1.077 1.077 0 01-.286-.399c-.435-1.055-.925-1.94-1.47-2.658l-1.565-2.06a12.419 12.419 0 01-1.224-2.043c-.334-.707-.501-1.577-.501-2.612 0-1.526.527-2.815 1.58-3.87C9.186 3.028 10.475 2.5 12 2.5c1.526 0 2.815.527 3.87 1.58 1.053 1.055 1.58 2.344 1.58 3.87 0 1.035-.163 1.905-.488 2.612a10.966 10.966 0 01-1.237 2.044c-.482.656-1 1.343-1.553 2.06-.553.716-1.047 1.602-1.482 2.657-.066.158-.162.29-.286.4a.603.603 0 01-.404.162zm0-8.406c.43 0 .792-.148 1.086-.442a1.48 1.48 0 00.443-1.087c0-.43-.148-.792-.443-1.087A1.477 1.477 0 0012 6.421c-.43 0-.792.148-1.087.442a1.477 1.477 0 00-.442 1.087c0 .43.148.792.442 1.087A1.48 1.48 0 0012 9.479z" fill="#fff"/></g></svg>