<svg width="24" height="24" fill="currentColor" xmlns="http://www.w3.org/2000/svg"><mask id="a" style="mask-type:alpha" maskUnits="userSpaceOnUse" x="0" y="0" width="24" height="24"><path fill="#D9D9D9" d="M0 0h24v24H0z"/></mask><g mask="url(#a)"><path d="M4.615 19c-.46 0-.844-.154-1.153-.462A1.565 1.565 0 013 17.385V6.615c0-.46.154-.844.462-1.152A1.565 1.565 0 014.615 5h14.77c.46 0 .844.154 1.152.463.309.308.463.692.463 1.152v10.77c0 .46-.154.844-.462 1.152a1.565 1.565 0 01-1.153.463H4.615zM20 6.885l-7.552 4.944a1.54 1.54 0 01-.214.093.712.712 0 01-.234.038.712.712 0 01-.234-.038 1.528 1.528 0 01-.214-.093L4 6.885v10.5a.6.6 0 00.173.442.599.599 0 00.442.173h14.77a.6.6 0 00.442-.173.599.599 0 00.173-.442v-10.5zM12 11l7.692-5H4.308L12 11zM4 7.096v-.811.034-.05.827z"/></g></svg>