<svg width="32" height="33" fill="none" xmlns="http://www.w3.org/2000/svg"><mask id="a" style="mask-type:alpha" maskUnits="userSpaceOnUse" x="0" y="0" width="32" height="33"><path fill="#D9D9D9" d="M0 .5h32v32H0z"/></mask><g mask="url(#a)"><path d="M5.744 26.5a2.326 2.326 0 01-1.71-.7 2.326 2.326 0 01-.7-1.71V8.91c0-.673.233-1.243.7-1.71a2.327 2.327 0 011.71-.7h20.512c.674 0 1.244.233 1.71.7.467.467.7 1.037.7 1.71v15.18c0 .673-.233 1.243-.7 1.71-.466.467-1.036.7-1.71.7H5.744zm20.923-16.077l-10.018 6.413a1.572 1.572 0 01-.318.137 1.13 1.13 0 01-.662 0 1.575 1.575 0 01-.318-.137L5.333 10.423V24.09a.4.4 0 00.116.295.4.4 0 00.295.115h20.512a.4.4 0 00.295-.115.4.4 0 00.116-.295V10.423zM16 15.167L26.462 8.5H5.538L16 15.167zM5.333 10.73V9.206v.04-.042 1.527z" fill="#fff"/></g></svg>