<svg width="32" height="33" fill="none" xmlns="http://www.w3.org/2000/svg"><mask id="a" style="mask-type:alpha" maskUnits="userSpaceOnUse" x="0" y="0" width="32" height="33"><path fill="#D9D9D9" d="M0 .5h32v32H0z"/></mask><g mask="url(#a)"><path d="M25.92 27.833c-2.512 0-5.037-.584-7.573-1.752-2.536-1.169-4.865-2.817-6.99-4.945-2.123-2.128-3.77-4.458-4.938-6.99-1.168-2.531-1.752-5.054-1.752-7.566a1.376 1.376 0 011.4-1.413h4.348c.337 0 .634.11.891.33.258.219.421.49.491.813l.764 3.923c.053.364.042.677-.033.939-.075.261-.21.481-.405.659l-3.08 2.997a18.5 18.5 0 001.7 2.576c.636.81 1.325 1.582 2.067 2.32.732.73 1.51 1.41 2.334 2.038a23.435 23.435 0 002.669 1.75l2.992-3.017c.209-.217.461-.37.758-.456a2.17 2.17 0 01.924-.065l3.703.754c.336.09.611.261.824.516.213.254.32.543.32.866v4.323a1.376 1.376 0 01-1.413 1.4zM8.098 12.936l2.38-2.277a.238.238 0 00.083-.141.313.313 0 00-.006-.167l-.58-2.98a.275.275 0 00-.09-.153.259.259 0 00-.166-.051H6.867a.174.174 0 00-.18.18 17.055 17.055 0 001.41 5.589zm11.6 11.523a13.71 13.71 0 002.766.945c.96.218 1.857.347 2.69.388a.174.174 0 00.18-.18v-2.804a.259.259 0 00-.051-.167.274.274 0 00-.154-.09l-2.8-.569a.211.211 0 00-.134-.006.326.326 0 00-.122.083l-2.375 2.4z" fill="#fff"/></g></svg>