<svg width="20" height="20" fill="currentColor" xmlns="http://www.w3.org/2000/svg"><mask id="a" style="mask-type:alpha" maskUnits="userSpaceOnUse" x="0" y="0" width="20" height="20"><path fill="#D9D9D9" d="M0 0h20v20H0z"/></mask><g mask="url(#a)"><path d="M15.046 16.146c-1.349-.125-2.668-.512-3.955-1.16A13.605 13.605 0 017.55 12.4a13.537 13.537 0 01-2.557-3.53 11.417 11.417 0 01-1.16-3.937.966.966 0 01.256-.772.964.964 0 01.744-.328h1.52c.268 0 .497.079.686.235.19.157.328.367.416.632l.372 1.28c.038.19.028.38-.031.568a.937.937 0 01-.288.449L5.679 8.702c.342.635.71 1.222 1.103 1.761.393.54.817 1.04 1.272 1.503.47.47.984.907 1.542 1.309.558.402 1.17.774 1.837 1.116l1.886-1.856a.78.78 0 01.384-.247c.135-.033.298-.035.49-.008l1.107.255c.268.07.48.205.634.405.155.2.233.44.233.719v1.487a.95.95 0 01-.338.744.997.997 0 01-.783.256zM5.393 8.045L7.075 6.49a.297.297 0 00.104-.176.39.39 0 00-.008-.208l-.373-1.35a.343.343 0 00-.112-.192.323.323 0 00-.209-.064H4.75a.217.217 0 00-.224.224c.016.528.105 1.07.267 1.628.163.557.362 1.121.6 1.693zm6.75 6.654c.508.24 1.053.416 1.634.527.581.111 1.08.185 1.499.223a.217.217 0 00.224-.224V13.51a.324.324 0 00-.064-.209.343.343 0 00-.193-.112l-1.145-.253a.264.264 0 00-.169-.008.407.407 0 00-.152.104L12.143 14.7z"/></g></svg>