<svg width="14" height="14" fill="none" xmlns="http://www.w3.org/2000/svg"><path d="M9.545 4.49a.47.47 0 01.204.04c.132.064.2.206.18.42-.069.707-.618 4.293-.735 4.652-.1.307-.206.572-.407.572a1.1 1.1 0 01-.637-.225 113.923 113.923 0 00-1.853-1.244c-.175-.11-.36-.386-.1-.652.215-.219 1.844-1.8 1.983-1.94.104-.103.055-.228-.047-.228a.194.194 0 00-.12.05c-.17.14-2.543 1.727-2.749 1.855a1.121 1.121 0 01-.844.11 21.22 21.22 0 01-1.062-.325c-.204-.073-.278-.143-.278-.268 0-.177.25-.3.514-.412.279-.118 5.105-2.168 5.482-2.304.175-.063.334-.101.469-.101zm0-.56c-.192 0-.407.044-.659.135-.39.14-4.988 2.093-5.511 2.315-.3.127-.856.364-.856.927 0 .374.219.642.65.796a22.4 22.4 0 001.102.337 1.7 1.7 0 001.237-.143.898.898 0 00.006.142c.034.294.215.57.484.74.176.11 1.612 1.073 1.826 1.226.302.215.635.329.963.329.627 0 .838-.648.94-.959.146-.451.696-4.124.759-4.771.042-.444-.143-.81-.495-.978a1.02 1.02 0 00-.446-.096z" fill="#fff"/></svg>