<svg width="24" height="24" viewBox="0 0 24 24" fill="none" xmlns="http://www.w3.org/2000/svg">
<mask id="mask0_354_1392" style="mask-type:alpha" maskUnits="userSpaceOnUse" x="0" y="0" width="24" height="24">
<rect width="24" height="24" transform="matrix(-1 0 0 1 24 0)" fill="#D9D9D9"/>
</mask>
<g mask="url(#mask0_354_1392)">
<path d="M14.8154 11.9999L7.28271 19.5326C7.08399 19.7314 6.9872 19.9653 6.99234 20.2346C6.99747 20.5038 7.09939 20.7377 7.29811 20.9365C7.49681 21.1352 7.73078 21.2345 8.00001 21.2345C8.26925 21.2345 8.50321 21.1352 8.70191 20.9365L16.3731 13.2807C16.5538 13.0999 16.6878 12.8974 16.775 12.673C16.8622 12.4486 16.9058 12.2243 16.9058 11.9999C16.9058 11.7756 16.8622 11.5512 16.775 11.3269C16.6878 11.1025 16.5538 10.9 16.3731 10.7192L8.70191 3.04804C8.50321 2.84932 8.26668 2.75252 7.99231 2.75764C7.71796 2.76277 7.48143 2.8647 7.28271 3.06341C7.08399 3.26213 6.98464 3.4961 6.98464 3.76531C6.98464 4.03455 7.08399 4.26852 7.28271 4.46724L14.8154 11.9999Z" fill="#121212"/>
</g>
</svg>
