<svg width="10" height="10" viewBox="0 0 10 10" fill="none" xmlns="http://www.w3.org/2000/svg">
<path d="M5.00005 5.72716L1.40775 9.31946C1.30133 9.42588 1.18338 9.47588 1.0539 9.46946C0.924413 9.46306 0.806463 9.40665 0.700046 9.30024C0.593629 9.19382 0.540421 9.07266 0.540421 8.93676C0.540421 8.80088 0.593629 8.67973 0.700046 8.57331L4.27312 5.00024L0.680821 1.43294C0.574404 1.32652 0.524404 1.20536 0.530821 1.06946C0.537221 0.933561 0.593629 0.812412 0.700046 0.706012C0.806463 0.599595 0.927621 0.546387 1.06352 0.546387C1.1994 0.546387 1.32055 0.599595 1.42697 0.706012L5.00005 4.29831L8.56735 0.706012C8.67376 0.599595 8.79171 0.546387 8.9212 0.546387C9.05068 0.546387 9.16863 0.599595 9.27505 0.706012C9.3853 0.816262 9.44042 0.938378 9.44042 1.07236C9.44042 1.20633 9.3853 1.32652 9.27505 1.43294L5.70197 5.00024L9.29427 8.59254C9.40069 8.69895 9.4539 8.8169 9.4539 8.94639C9.4539 9.07587 9.40069 9.19382 9.29427 9.30024C9.18402 9.41049 9.0619 9.46561 8.92792 9.46561C8.79395 9.46561 8.67376 9.41049 8.56735 9.30024L5.00005 5.72716Z" fill="#1C1B1F"/>
</svg>
