<svg width="24" height="24" viewBox="0 0 24 24" fill="none" xmlns="http://www.w3.org/2000/svg">
<mask id="mask0_297_302" style="mask-type:alpha" maskUnits="userSpaceOnUse" x="0" y="0" width="24" height="24">
<rect width="24" height="24" fill="#D9D9D9"/>
</mask>
<g mask="url(#mask0_297_302)">
<path d="M12 21.5C10.3872 21.5 9.06731 21.2689 8.04037 20.8067C7.01346 20.3446 6.5 19.7423 6.5 19C6.5 18.609 6.66795 18.2513 7.00385 17.9269C7.33975 17.6026 7.80449 17.3218 8.39808 17.0846L8.68463 18.0423C8.33719 18.1898 8.06603 18.3452 7.87115 18.5086C7.67628 18.6721 7.55642 18.8359 7.51155 19C7.62565 19.4461 8.10962 19.8077 8.96347 20.0846C9.81731 20.3615 10.8295 20.5 12 20.5C13.1577 20.5 14.1676 20.3615 15.0298 20.0846C15.892 19.8077 16.3801 19.4461 16.4942 19C16.4494 18.8359 16.3295 18.6753 16.1346 18.5183C15.9397 18.3612 15.6686 18.2026 15.3212 18.0423L15.6269 17.0846C16.2205 17.3218 16.6811 17.6026 17.0087 17.9269C17.3362 18.2513 17.5 18.609 17.5 19C17.5 19.7423 16.9865 20.3446 15.9596 20.8067C14.9327 21.2689 13.6128 21.5 12 21.5ZM12 16.3634C12.3 15.775 12.6551 15.1747 13.0654 14.5625C13.4756 13.9503 13.8968 13.3654 14.3288 12.8077C14.9711 11.9692 15.4853 11.2067 15.8712 10.5202C16.257 9.83365 16.45 8.97692 16.45 7.95C16.45 6.7218 16.0154 5.67308 15.1462 4.80385C14.2769 3.93462 13.2282 3.5 12 3.5C10.7718 3.5 9.72308 3.93462 8.85385 4.80385C7.98462 5.67308 7.55 6.7218 7.55 7.95C7.55 8.97692 7.74616 9.83365 8.13848 10.5202C8.53078 11.2067 9.04167 11.9692 9.67115 12.8077C10.1032 13.3654 10.5244 13.9503 10.9346 14.5625C11.3449 15.1747 11.7 15.775 12 16.3634ZM12 17.8846C11.8551 17.8846 11.7205 17.8305 11.5962 17.7221C11.4718 17.6138 11.3763 17.4808 11.3096 17.3231C10.875 16.268 10.3853 15.3821 9.84037 14.6654C9.29551 13.9487 8.77372 13.2622 8.275 12.6058C7.79295 11.9494 7.38493 11.2679 7.05095 10.5615C6.71698 9.85513 6.55 8.98462 6.55 7.95C6.55 6.42435 7.07692 5.13461 8.13077 4.08078C9.18461 3.02693 10.4743 2.5 12 2.5C13.5257 2.5 14.8154 3.02693 15.8692 4.08078C16.9231 5.13461 17.45 6.42435 17.45 7.95C17.45 8.98462 17.2872 9.85513 16.9615 10.5615C16.6359 11.2679 16.2237 11.9494 15.725 12.6058C15.243 13.2622 14.7253 13.9487 14.1721 14.6654C13.6189 15.3821 13.125 16.268 12.6904 17.3231C12.6237 17.4808 12.5282 17.6138 12.4039 17.7221C12.2795 17.8305 12.1449 17.8846 12 17.8846ZM12 9.47885C12.4295 9.47885 12.7917 9.33142 13.0865 9.03655C13.3814 8.74167 13.5289 8.37948 13.5289 7.95C13.5289 7.52052 13.3814 7.15833 13.0865 6.86345C12.7917 6.56858 12.4295 6.42115 12 6.42115C11.5705 6.42115 11.2083 6.56858 10.9134 6.86345C10.6186 7.15833 10.4712 7.52052 10.4712 7.95C10.4712 8.37948 10.6186 8.74167 10.9134 9.03655C11.2083 9.33142 11.5705 9.47885 12 9.47885Z" fill="white"/>
</g>
</svg>
