<svg width="32" height="33" viewBox="0 0 32 33" fill="none" xmlns="http://www.w3.org/2000/svg">
<mask id="mask0_99_92" style="mask-type:alpha" maskUnits="userSpaceOnUse" x="0" y="0" width="32" height="33">
<rect y="0.5" width="32" height="32" fill="#D9D9D9"/>
</mask>
<g mask="url(#mask0_99_92)">
<path d="M5.74358 26.4999C5.07007 26.4999 4.49998 26.2666 4.03331 25.7999C3.56665 25.3333 3.33331 24.7632 3.33331 24.0897V8.91027C3.33331 8.23676 3.56665 7.66667 4.03331 7.2C4.49998 6.73333 5.07007 6.5 5.74358 6.5H26.2563C26.9298 6.5 27.4999 6.73333 27.9666 7.2C28.4332 7.66667 28.6666 8.23676 28.6666 8.91027V24.0897C28.6666 24.7632 28.4332 25.3333 27.9666 25.7999C27.4999 26.2666 26.9298 26.4999 26.2563 26.4999H5.74358ZM26.6666 10.423L16.6486 16.8358C16.5461 16.8939 16.4401 16.9397 16.3307 16.973C16.2213 17.0063 16.1111 17.023 15.9999 17.023C15.8888 17.023 15.7786 17.0063 15.6692 16.973C15.5598 16.9397 15.4538 16.8939 15.3512 16.8358L5.33328 10.423V24.0897C5.33328 24.2093 5.37175 24.3076 5.44868 24.3846C5.52561 24.4615 5.62391 24.5 5.74358 24.5H26.2563C26.376 24.5 26.4743 24.4615 26.5512 24.3846C26.6281 24.3076 26.6666 24.2093 26.6666 24.0897V10.423ZM15.9999 15.1666L26.4615 8.49997H5.53841L15.9999 15.1666ZM5.33328 10.7307V9.20637V9.2461V9.2038V10.7307Z" fill="white"/>
</g>
</svg>
