<svg width="24" height="24" viewBox="0 0 24 24" fill="currentColor" xmlns="http://www.w3.org/2000/svg">
<mask id="mask0_354_1076" style="mask-type:alpha" maskUnits="userSpaceOnUse" x="0" y="0" width="24" height="24">
<rect width="24" height="24" fill="#D9D9D9"/>
</mask>
<g mask="url(#mask0_354_1076)">
<path d="M4.61538 19C4.15513 19 3.77083 18.8458 3.4625 18.5375C3.15417 18.2292 3 17.8449 3 17.3846V6.61537C3 6.15512 3.15417 5.77083 3.4625 5.4625C3.77083 5.15417 4.15513 5 4.61538 5H19.3846C19.8449 5 20.2292 5.15417 20.5375 5.4625C20.8458 5.77083 21 6.15512 21 6.61537V17.3846C21 17.8449 20.8458 18.2292 20.5375 18.5375C20.2292 18.8458 19.8449 19 19.3846 19H4.61538ZM20 6.88463L12.4481 11.8288C12.3776 11.866 12.3061 11.8971 12.2337 11.9221C12.1612 11.9471 12.0833 11.9596 12 11.9596C11.9167 11.9596 11.8388 11.9471 11.7663 11.9221C11.6939 11.8971 11.6224 11.866 11.5519 11.8288L4 6.88463V17.3846C4 17.5641 4.05769 17.7115 4.17308 17.8269C4.28846 17.9423 4.43589 18 4.61538 18H19.3846C19.5641 18 19.7115 17.9423 19.8269 17.8269C19.9423 17.7115 20 17.5641 20 17.3846V6.88463ZM12 11L19.6923 6H4.3077L12 11ZM4 7.09615V6.28463V6.31922V6.26828V7.09615Z"/>
</g>
</svg>
