<svg width="20" height="20" viewBox="0 0 20 20" fill="currentColor" xmlns="http://www.w3.org/2000/svg">
<mask id="mask0_354_1081" style="mask-type:alpha" maskUnits="userSpaceOnUse" x="0" y="0" width="20" height="20">
<rect width="20" height="20" fill="#D9D9D9"/>
</mask>
<g mask="url(#mask0_354_1081)">
<path d="M15.0464 16.1458C13.697 16.0208 12.3784 15.6344 11.0905 14.9864C9.80252 14.3384 8.62276 13.476 7.55118 12.3991C6.4796 11.3221 5.62677 10.1458 4.9927 8.8702C4.35862 7.59456 3.97213 6.28206 3.83324 4.9327C3.80546 4.63645 3.89078 4.37916 4.08918 4.16084C4.2876 3.94251 4.53562 3.83334 4.83324 3.83334H6.35247C6.62064 3.83334 6.84954 3.9116 7.03918 4.06811C7.22882 4.22463 7.36744 4.43536 7.45503 4.70032L7.82683 5.97918C7.8653 6.17041 7.85488 6.36005 7.79558 6.54809C7.73628 6.73612 7.6404 6.88569 7.50793 6.9968L5.67939 8.70193C6.02128 9.33655 6.3888 9.92363 6.78197 10.4632C7.17512 11.0027 7.59905 11.5036 8.05374 11.966C8.52427 12.4363 9.03837 12.8726 9.59606 13.2748C10.1537 13.6771 10.7659 14.0492 11.4326 14.391L13.3188 12.5353C13.4406 12.4028 13.5688 12.3203 13.7034 12.2877C13.838 12.2551 14.001 12.2527 14.1922 12.2804L15.2996 12.5353C15.5678 12.6047 15.7793 12.7396 15.9342 12.9399C16.0891 13.1402 16.1666 13.3798 16.1666 13.6587V15.1458C16.1666 15.4435 16.0539 15.6915 15.8287 15.8899C15.6034 16.0883 15.3426 16.1736 15.0464 16.1458ZM5.39253 8.04489L7.07522 6.49039C7.12864 6.44765 7.16336 6.38889 7.17939 6.31412C7.19542 6.23932 7.19275 6.16988 7.17139 6.10578L6.79785 4.75643C6.77649 4.67095 6.73909 4.60685 6.68566 4.56411C6.63224 4.52138 6.5628 4.50001 6.47735 4.50001H4.74991C4.68581 4.50001 4.63239 4.52138 4.58966 4.56411C4.54692 4.60685 4.52555 4.66027 4.52555 4.72436C4.54158 5.25214 4.63079 5.79461 4.79318 6.35178C4.95557 6.90893 5.15535 7.4733 5.39253 8.04489ZM12.1425 14.6987C12.6514 14.9393 13.1964 15.1151 13.7774 15.2261C14.3584 15.3371 14.8578 15.4113 15.2756 15.4487C15.3397 15.4487 15.3931 15.4274 15.4358 15.3846C15.4785 15.3419 15.4999 15.2885 15.4999 15.2244V13.5096C15.4999 13.4242 15.4785 13.3547 15.4358 13.3013C15.3931 13.2479 15.329 13.2105 15.2435 13.1891L14.0977 12.9359C14.0336 12.9145 13.9775 12.9119 13.9294 12.9279C13.8813 12.9439 13.8306 12.9786 13.7772 13.0321L12.1425 14.6987Z"/>
</g>
</svg>
