<svg width="32" height="33" viewBox="0 0 32 33" fill="none" xmlns="http://www.w3.org/2000/svg">
<mask id="mask0_99_95" style="mask-type:alpha" maskUnits="userSpaceOnUse" x="0" y="0" width="32" height="33">
<rect y="0.5" width="32" height="32" fill="#D9D9D9"/>
</mask>
<g mask="url(#mask0_99_95)">
<path d="M25.9205 27.8334C23.4077 27.8334 20.8833 27.2492 18.3474 26.0808C15.8115 24.9124 13.4816 23.2641 11.3577 21.1359C9.23379 19.0077 7.58763 16.6778 6.41925 14.1462C5.25088 11.6146 4.66669 9.09238 4.66669 6.57958C4.66669 6.17592 4.80002 5.83953 5.06669 5.57042C5.33335 5.30131 5.66669 5.16675 6.06669 5.16675H10.4154C10.7521 5.16675 11.0491 5.27658 11.3064 5.49625C11.5637 5.71592 11.7273 5.98728 11.7974 6.31035L12.5615 10.2334C12.6145 10.5975 12.6034 10.9103 12.5282 11.1718C12.453 11.4334 12.3179 11.653 12.123 11.8308L9.04355 14.8283C9.53929 15.7359 10.1055 16.5945 10.7423 17.4039C11.379 18.2133 12.0684 18.9864 12.8102 19.7232C13.5419 20.4548 14.3197 21.1343 15.1436 21.7616C15.9675 22.389 16.8573 22.9727 17.8128 23.5129L20.8051 20.4949C21.0137 20.2779 21.2662 20.1257 21.5628 20.0386C21.8594 19.9514 22.1675 19.93 22.4872 19.9745L26.1897 20.7283C26.5264 20.8172 26.8012 20.989 27.0141 21.2437C27.2269 21.4984 27.3333 21.7873 27.3333 22.1104V26.4334C27.3333 26.8334 27.1987 27.1667 26.9296 27.4334C26.6605 27.7 26.3241 27.8334 25.9205 27.8334ZM8.09742 12.936L10.4769 10.659C10.5197 10.6249 10.5474 10.5778 10.5603 10.518C10.5731 10.4582 10.5709 10.4026 10.5539 10.3513L9.97435 7.37185C9.95726 7.30347 9.92735 7.25219 9.88462 7.21802C9.84189 7.18382 9.78633 7.16672 9.71795 7.16672H6.86665C6.81539 7.16672 6.77265 7.18382 6.73845 7.21802C6.70425 7.25219 6.68715 7.29493 6.68715 7.34622C6.75553 8.25733 6.90468 9.18297 7.13459 10.1231C7.36452 11.0633 7.68547 12.0009 8.09742 12.936ZM19.6974 24.459C20.5812 24.871 21.503 25.186 22.4628 25.4039C23.4226 25.6219 24.3196 25.7513 25.1538 25.7924C25.2051 25.7924 25.2478 25.7753 25.282 25.7411C25.3162 25.7069 25.3333 25.6641 25.3333 25.6129V22.8078C25.3333 22.7394 25.3162 22.6838 25.282 22.6411C25.2478 22.5983 25.1966 22.5684 25.1282 22.5513L22.3282 21.9821C22.2769 21.965 22.2321 21.9629 22.1936 21.9757C22.1551 21.9885 22.1145 22.0163 22.0718 22.059L19.6974 24.459Z" fill="white"/>
</g>
</svg>
