<svg width="14" height="14" viewBox="0 0 14 14" fill="none" xmlns="http://www.w3.org/2000/svg">
<path d="M9.54452 4.48981C9.62152 4.48981 9.6904 4.50241 9.74864 4.53069C9.88108 4.59425 9.94856 4.73621 9.92812 4.95041C9.86036 5.65685 9.31072 9.24253 9.19368 9.60205C9.09344 9.90949 8.98788 10.1738 8.78684 10.1738C8.5858 10.1738 8.36628 10.1038 8.14984 9.94897C7.9334 9.79441 6.49616 8.83037 6.29652 8.70465C6.12152 8.59433 5.93644 8.31909 6.19712 8.05309C6.41188 7.83413 8.04092 6.25297 8.18008 6.11381C8.28368 6.00993 8.23496 5.88477 8.13332 5.88477C8.09832 5.88477 8.05688 5.89961 8.01348 5.93517C7.84324 6.07433 5.46968 7.66249 5.26416 7.79017C5.12808 7.87473 4.91752 7.93577 4.69884 7.93577C4.6056 7.93577 4.51096 7.92457 4.42024 7.89965C4.1044 7.81257 3.56988 7.65045 3.35764 7.57485C3.15352 7.50205 3.0796 7.43205 3.0796 7.30717C3.0796 7.12965 3.32992 7.00729 3.59396 6.89501C3.87284 6.77657 8.69864 4.72725 9.07608 4.59145C9.2508 4.52817 9.4104 4.48981 9.54452 4.48981ZM9.54452 3.92981C9.353 3.92981 9.13768 3.97405 8.88596 4.06477C8.49508 4.20561 3.89776 6.15777 3.37472 6.37981C3.07568 6.50693 2.51904 6.74353 2.51904 7.30745C2.51904 7.68125 2.73772 7.94865 3.16892 8.10265C3.40076 8.18525 3.95152 8.35185 4.271 8.43977C4.40652 8.47701 4.55044 8.49605 4.69856 8.49605C4.98836 8.49605 5.27984 8.42381 5.50832 8.29641C5.50636 8.34345 5.50804 8.39105 5.51364 8.43865C5.54808 8.73265 5.72924 9.00929 5.99804 9.17869C6.17388 9.28957 7.61 10.2519 7.82448 10.4048C8.12576 10.6201 8.45868 10.7338 8.78684 10.7338C9.41404 10.7338 9.62488 10.0864 9.72624 9.77537C9.87324 9.32373 10.4234 5.65125 10.4856 5.00361C10.5279 4.55981 10.3428 4.19413 9.99056 4.02557C9.85868 3.96201 9.70832 3.92981 9.54452 3.92981Z" fill="white"/>
</svg>
