<svg width="800" height="358" fill="none" xmlns="http://www.w3.org/2000/svg"><path d="M493.08 100.24c13.733-24.924 5.85-45.466-6.673-53.6-4.174-2.706-9.172-3.895-14.807-3.68-30.408 1.153-80.099 42.917-120.188 104.651-34.396 53.077-52.174 100.741-51.652 131.636.258 15.215 5.506 26.363 14.32 32.084 12.681 8.234 27.294 5.657 50.12-10.611" stroke="#fff" stroke-width="4" stroke-linecap="round"/><path d="M521.72 221.96c22.554-8.749 35.048-20.95 35.771-34.704 1.669-31.805-67.791-60.345-154.914-64.913-8.169-.422-16.203-.652-24.057-.623-75.939.258-134.98 20.184-136.491 49.003-.723 13.726 16.504 29.22 36.251 36.917" stroke="#fff" stroke-width="4" stroke-linecap="round"/><path d="M378.52 57.28c-15.43-12.802-30.208-22.275-41.836-21.408-3.093.229-5.957.995-8.62 2.348-10.361 5.284-14.342 20.37-13.984 40.54.623 35.091 14.793 85.548 34.275 126.438 37.526 78.76 94.72 129.017 123.095 114.56 24.337-16.439 19.36-82.597-14.17-155.078" stroke="#fff" stroke-width="4" stroke-linecap="round"/><path d="M421.48 179c0 11.864-9.616 21.48-21.48 21.48s-21.48-9.616-21.48-21.48 9.616-21.48 21.48-21.48 21.48 9.616 21.48 21.48zm326.184 116v-63.496H625v-5.891L747.009 60h9.159v163.322H800v8.182h-43.832V295h-8.504zm0-171.504V85.529c.218-4.582.327-9.6.327-15.055h-.655c-3.707 5.89-6.869 10.8-9.486 14.728-2.616 3.927-6.433 9.273-11.448 16.038l-89.626 122.082h110.888v-99.826zM122.664 295v-63.496H0v-5.891L122.009 60h9.159v163.322H175v8.182h-43.832V295h-8.504zm0-171.504V85.529c.218-4.582.327-9.6.327-15.055h-.655c-3.707 5.89-6.869 10.8-9.486 14.728-2.616 3.927-6.433 9.273-11.448 16.038L11.776 223.322h110.888v-99.826z" fill="#fff"/></svg>