<svg width="800" height="358" viewBox="0 0 800 358" fill="none" xmlns="http://www.w3.org/2000/svg">
<path d="M493.08 100.24C506.813 75.3161 498.93 54.774 486.407 46.6403C482.233 43.9338 477.235 42.7452 471.6 42.96C441.192 44.1128 391.501 85.8771 351.412 147.611C317.016 200.688 299.238 248.352 299.76 279.247C300.018 294.462 305.266 305.61 314.08 311.331C326.761 319.565 341.374 316.988 364.2 300.72" stroke="white" stroke-width="4" stroke-linecap="round"/>
<path d="M521.72 221.96C544.274 213.211 556.768 201.01 557.491 187.256C559.16 155.451 489.7 126.911 402.577 122.343C394.408 121.921 386.374 121.691 378.52 121.72C302.581 121.978 243.54 141.904 242.029 170.723C241.306 184.449 258.533 199.943 278.28 207.64" stroke="white" stroke-width="4" stroke-linecap="round"/>
<path d="M378.52 57.28C363.09 44.4779 348.312 35.0053 336.684 35.8716C333.591 36.1007 330.727 36.8669 328.064 38.2201C317.703 43.5042 313.722 58.5903 314.08 78.76C314.703 113.851 328.873 164.308 348.355 205.198C385.881 283.958 443.075 334.215 471.45 319.758C495.787 303.319 490.81 237.161 457.28 164.68" stroke="white" stroke-width="4" stroke-linecap="round"/>
<path d="M421.48 179C421.48 190.864 411.864 200.48 400 200.48C388.136 200.48 378.52 190.864 378.52 179C378.52 167.136 388.136 157.52 400 157.52C411.864 157.52 421.48 167.136 421.48 179Z" fill="white"/>
<path d="M747.664 295V231.504H625V225.613L747.009 60H756.168V223.322H800V231.504H756.168V295H747.664ZM747.664 123.496C747.664 114.113 747.664 106.585 747.664 100.912C747.664 95.0209 747.664 89.8932 747.664 85.5292C747.882 80.9471 747.991 75.9285 747.991 70.4735H747.336C743.629 76.3649 740.467 81.2744 737.85 85.202C735.234 89.1295 731.417 94.4754 726.402 101.24L636.776 223.322H747.664V123.496Z" fill="white"/>
<path d="M122.664 295V231.504H0V225.613L122.009 60H131.168V223.322H175V231.504H131.168V295H122.664ZM122.664 123.496C122.664 114.113 122.664 106.585 122.664 100.912C122.664 95.0209 122.664 89.8932 122.664 85.5292C122.882 80.9471 122.991 75.9285 122.991 70.4735H122.336C118.629 76.3649 115.467 81.2744 112.85 85.202C110.234 89.1295 106.417 94.4754 101.402 101.24L11.7757 223.322H122.664V123.496Z" fill="white"/>
</svg>
